<svg xmlns="http://www.w3.org/2000/svg" xmlns:xlink="http://www.w3.org/1999/xlink" width="1080" zoomAndPan="magnify" viewBox="0 0 810 225" height="300" preserveAspectRatio="xMidYMid meet" version="1.2"><defs/><g id="3393e76878"><g style="fill:#ff2f1f;fill-opacity:0.302;"><g transform="translate(15.314845, 178.549273)"><path style="stroke:none" d="M 66.28125 0.53125 C 58.34375 0.53125 51.796875 -1.003906 46.640625 -4.078125 C 41.484375 -7.160156 37.273438 -11.601562 34.015625 -17.40625 C 30.765625 -23.21875 27.835938 -30.269531 25.234375 -38.5625 L 5.328125 -102.34375 C 3.429688 -108.269531 3.578125 -113.453125 5.765625 -117.890625 C 7.960938 -122.335938 11.90625 -125.390625 17.59375 -127.046875 C 22.800781 -128.585938 27.535156 -128.257812 31.796875 -126.0625 C 36.066406 -123.875 38.972656 -120.175781 40.515625 -114.96875 L 59.875 -53.484375 C 61.894531 -46.847656 64.472656 -42.429688 67.609375 -40.234375 C 70.742188 -38.046875 74.148438 -37.546875 77.828125 -38.734375 C 81.617188 -39.796875 84.046875 -41.957031 85.109375 -45.21875 C 86.179688 -48.476562 85.882812 -53.425781 84.21875 -60.0625 C 81.5 -71.90625 79.664062 -81.203125 78.71875 -87.953125 C 77.769531 -94.703125 77.296875 -100.035156 77.296875 -103.953125 C 77.296875 -110.578125 79.101562 -116.289062 82.71875 -121.09375 C 86.332031 -125.894531 91.925781 -128.296875 99.5 -128.296875 C 106.96875 -128.296875 112.390625 -125.894531 115.765625 -121.09375 C 119.140625 -116.289062 120.828125 -110.578125 120.828125 -103.953125 C 120.828125 -100.035156 120.289062 -96.003906 119.21875 -91.859375 C 118.15625 -87.710938 116.914062 -83.453125 115.5 -79.078125 L 99.6875 -31.265625 C 97.550781 -24.867188 95.207031 -19.269531 92.65625 -14.46875 C 90.113281 -9.675781 86.796875 -5.976562 82.703125 -3.375 C 78.617188 -0.769531 73.144531 0.53125 66.28125 0.53125 Z M 66.28125 0.53125 "/></g></g><g style="fill:#ff2f1f;fill-opacity:0.302;"><g transform="translate(126.542131, 178.549273)"><path style="stroke:none" d="M 31.09375 0 C 22.332031 0 15.492188 -2.367188 10.578125 -7.109375 C 5.660156 -11.847656 3.203125 -18.484375 3.203125 -27.015625 C 3.203125 -35.535156 6.039062 -41.722656 11.71875 -45.578125 C 17.40625 -49.429688 24.691406 -51.359375 33.578125 -51.359375 C 38.796875 -51.359375 43.535156 -51 47.796875 -50.28125 C 52.054688 -49.570312 55.90625 -48.566406 59.34375 -47.265625 L 59.875 -47.265625 L 59.875 -49.9375 C 59.875 -52.65625 58.867188 -54.8125 56.859375 -56.40625 C 54.847656 -58.007812 52.300781 -58.753906 49.21875 -58.640625 C 46.257812 -58.640625 43.742188 -58.460938 41.671875 -58.109375 C 39.597656 -57.753906 37.019531 -57.160156 33.9375 -56.328125 C 28.25 -54.898438 23.332031 -55.015625 19.1875 -56.671875 C 15.039062 -58.335938 12.195312 -61.597656 10.65625 -66.453125 C 9.238281 -71.546875 9.566406 -75.8125 11.640625 -79.25 C 13.710938 -82.6875 16.878906 -85.351562 21.140625 -87.25 C 24.816406 -89.019531 28.929688 -90.5 33.484375 -91.6875 C 38.046875 -92.875 42.992188 -93.46875 48.328125 -93.46875 C 63.847656 -93.46875 75.25 -89.703125 82.53125 -82.171875 C 89.820312 -74.648438 93.46875 -62.066406 93.46875 -44.421875 L 93.46875 -16.875 C 93.46875 -12.019531 91.984375 -7.992188 89.015625 -4.796875 C 86.054688 -1.597656 81.972656 0 76.765625 0 C 71.078125 0 66.835938 -1.597656 64.046875 -4.796875 C 61.265625 -7.992188 59.875 -11.90625 59.875 -16.53125 L 59.875 -20.609375 L 56.328125 -20.609375 C 56.328125 -17.523438 55.765625 -14.382812 54.640625 -11.1875 C 53.515625 -7.988281 51.203125 -5.320312 47.703125 -3.1875 C 44.210938 -1.0625 38.675781 0 31.09375 0 Z M 32.875 -38.90625 C 32.875 -36.894531 33.613281 -35.472656 35.09375 -34.640625 C 36.570312 -33.816406 39.800781 -33.40625 44.78125 -33.40625 C 49.28125 -33.40625 52.414062 -33.816406 54.1875 -34.640625 C 55.96875 -35.472656 56.859375 -36.894531 56.859375 -38.90625 C 56.859375 -40.800781 55.96875 -42.132812 54.1875 -42.90625 C 52.414062 -43.675781 49.28125 -44.0625 44.78125 -44.0625 C 39.800781 -44.0625 36.570312 -43.675781 35.09375 -42.90625 C 33.613281 -42.132812 32.875 -40.800781 32.875 -38.90625 Z M 32.875 -38.90625 "/></g></g><g style="fill:#ff2f1f;fill-opacity:0.302;"><g transform="translate(224.443666, 178.549273)"><path style="stroke:none" d="M 22.390625 0 C 16.816406 0 12.488281 -1.597656 9.40625 -4.796875 C 6.332031 -7.992188 4.796875 -12.019531 4.796875 -16.875 L 4.796875 -75.15625 C 4.796875 -80.25 6.332031 -84.484375 9.40625 -87.859375 C 12.488281 -91.242188 16.816406 -92.9375 22.390625 -92.9375 C 27.953125 -92.9375 32.210938 -91.242188 35.171875 -87.859375 C 38.140625 -84.484375 39.625 -80.367188 39.625 -75.515625 L 39.625 -71.78125 L 43 -71.78125 C 43.476562 -78.0625 45.847656 -83.210938 50.109375 -87.234375 C 54.367188 -91.265625 59.40625 -93.28125 65.21875 -93.28125 C 71.019531 -93.28125 75.609375 -91.503906 78.984375 -87.953125 C 82.359375 -84.398438 84.046875 -79.660156 84.046875 -73.734375 C 84.046875 -68.171875 82.445312 -63.550781 79.25 -59.875 C 76.050781 -56.207031 71.960938 -54.375 66.984375 -54.375 C 62.835938 -54.375 59.375 -55.347656 56.59375 -57.296875 C 53.8125 -59.253906 51.769531 -61.535156 50.46875 -64.140625 C 46.675781 -64.617188 43.921875 -64.234375 42.203125 -62.984375 C 40.484375 -61.742188 39.625 -59.285156 39.625 -55.609375 L 39.625 -16.875 C 39.625 -12.019531 38.140625 -7.992188 35.171875 -4.796875 C 32.210938 -1.597656 27.953125 0 22.390625 0 Z M 22.390625 0 "/></g></g><g style="fill:#ff2f1f;fill-opacity:0.302;"><g transform="translate(306.176268, 178.549273)"><path style="stroke:none" d="M 49.578125 0.359375 C 35.710938 0.359375 24.664062 -3.753906 16.4375 -11.984375 C 8.207031 -20.222656 4.09375 -31.863281 4.09375 -46.90625 C 4.09375 -56.144531 5.984375 -64.257812 9.765625 -71.25 C 13.554688 -78.238281 18.859375 -83.71875 25.671875 -87.6875 C 32.484375 -91.65625 40.453125 -93.640625 49.578125 -93.640625 C 59.765625 -93.640625 68.234375 -91.65625 74.984375 -87.6875 C 81.734375 -83.71875 86.796875 -78.238281 90.171875 -71.25 C 93.546875 -64.257812 95.234375 -56.144531 95.234375 -46.90625 C 95.234375 -31.863281 91.472656 -20.222656 83.953125 -11.984375 C 76.429688 -3.753906 64.972656 0.359375 49.578125 0.359375 Z M 25.234375 -49.9375 C 25.234375 -46.257812 27.066406 -43.679688 30.734375 -42.203125 C 34.410156 -40.722656 40.691406 -39.984375 49.578125 -39.984375 C 58.460938 -39.984375 64.738281 -40.722656 68.40625 -42.203125 C 72.082031 -43.679688 73.921875 -46.257812 73.921875 -49.9375 C 73.921875 -53.488281 72.082031 -55.972656 68.40625 -57.390625 C 64.738281 -58.816406 58.460938 -59.53125 49.578125 -59.53125 C 40.691406 -59.53125 34.410156 -58.816406 30.734375 -57.390625 C 27.066406 -55.972656 25.234375 -53.488281 25.234375 -49.9375 Z M 37.484375 -119.9375 C 40.804688 -121.945312 44.125 -123.867188 47.4375 -125.703125 C 50.757812 -127.546875 54.609375 -129.710938 58.984375 -132.203125 C 63.492188 -134.691406 67.820312 -135.550781 71.96875 -134.78125 C 76.113281 -134.007812 79.132812 -131.429688 81.03125 -127.046875 C 83.039062 -122.660156 83.332031 -118.71875 81.90625 -115.21875 C 80.488281 -111.726562 77.351562 -108.976562 72.5 -106.96875 C 68.226562 -105.1875 63.457031 -103.523438 58.1875 -101.984375 C 52.914062 -100.453125 48.445312 -99.390625 44.78125 -98.796875 C 41.9375 -98.316406 39.269531 -98.582031 36.78125 -99.59375 C 34.289062 -100.601562 32.453125 -102.644531 31.265625 -105.71875 C 30.203125 -108.800781 30.265625 -111.523438 31.453125 -113.890625 C 32.640625 -116.265625 34.648438 -118.28125 37.484375 -119.9375 Z M 37.484375 -119.9375 "/></g></g><g style="fill:#ff2f1f;fill-opacity:0.302;"><g transform="translate(400.524103, 178.549273)"><path style="stroke:none" d="M 49.578125 2.3125 C 41.398438 2.3125 33.847656 1.515625 26.921875 -0.078125 C 19.992188 -1.679688 14.457031 -4.226562 10.3125 -7.71875 C 6.164062 -11.21875 4.09375 -15.867188 4.09375 -21.671875 C 4.09375 -26.765625 5.628906 -30.96875 8.703125 -34.28125 C 11.785156 -37.601562 15.875 -39.265625 20.96875 -39.265625 C 24.164062 -39.265625 27.390625 -38.757812 30.640625 -37.75 C 33.898438 -36.75 37.363281 -35.773438 41.03125 -34.828125 C 44.707031 -33.878906 48.679688 -33.40625 52.953125 -33.40625 C 56.742188 -33.40625 59.289062 -33.613281 60.59375 -34.03125 C 61.894531 -34.445312 62.546875 -35.242188 62.546875 -36.421875 C 62.546875 -37.847656 61.742188 -38.796875 60.140625 -39.265625 C 58.546875 -39.742188 55.851562 -40.335938 52.0625 -41.046875 L 39.265625 -43.53125 C 33.929688 -44.59375 28.75 -45.984375 23.71875 -47.703125 C 18.6875 -49.421875 14.539062 -52 11.28125 -55.4375 C 8.019531 -58.875 6.390625 -63.550781 6.390625 -69.46875 C 6.390625 -77.53125 9.972656 -83.8125 17.140625 -88.3125 C 24.304688 -92.8125 34.703125 -95.0625 48.328125 -95.0625 C 56.148438 -95.0625 63.171875 -94.289062 69.390625 -92.75 C 75.609375 -91.207031 80.550781 -88.925781 84.21875 -85.90625 C 87.894531 -82.882812 89.734375 -79.125 89.734375 -74.625 C 89.847656 -69.769531 88.539062 -65.859375 85.8125 -62.890625 C 83.09375 -59.929688 79.660156 -58.453125 75.515625 -58.453125 C 72.554688 -58.453125 69.566406 -58.835938 66.546875 -59.609375 C 63.523438 -60.378906 60.265625 -61.207031 56.765625 -62.09375 C 53.273438 -62.988281 49.28125 -63.492188 44.78125 -63.609375 C 41.582031 -63.847656 38.972656 -63.671875 36.953125 -63.078125 C 34.941406 -62.484375 33.9375 -61.535156 33.9375 -60.234375 C 33.9375 -58.816406 35.117188 -57.835938 37.484375 -57.296875 C 39.859375 -56.765625 43.414062 -56.085938 48.15625 -55.265625 L 60.765625 -52.953125 C 68.460938 -51.648438 74.59375 -50.019531 79.15625 -48.0625 C 83.71875 -46.101562 87.003906 -43.40625 89.015625 -39.96875 C 91.035156 -36.539062 92.046875 -31.804688 92.046875 -25.765625 C 92.046875 -19.484375 90.238281 -14.238281 86.625 -10.03125 C 83.007812 -5.832031 78.003906 -2.722656 71.609375 -0.703125 C 65.210938 1.304688 57.867188 2.3125 49.578125 2.3125 Z M 49.578125 2.3125 "/></g></g><g style="fill:#ff2f1f;fill-opacity:0.302;"><g transform="translate(491.140662, 178.549273)"><path style="stroke:none" d="M 56.328125 0.53125 C 50.046875 0.53125 44.390625 -0.890625 39.359375 -3.734375 C 34.328125 -6.578125 30.390625 -10.632812 27.546875 -15.90625 C 24.703125 -21.175781 23.28125 -27.363281 23.28125 -34.46875 L 23.28125 -65.75 L 16.703125 -64.859375 C 13.148438 -64.378906 10.007812 -65.617188 7.28125 -68.578125 C 4.5625 -71.546875 3.203125 -75.28125 3.203125 -79.78125 C 3.203125 -84.28125 4.5625 -87.976562 7.28125 -90.875 C 10.007812 -93.78125 13.148438 -95 16.703125 -94.53125 L 23.28125 -93.640625 L 23.09375 -105.71875 C 22.976562 -110.457031 24.34375 -114.21875 27.1875 -117 C 30.03125 -119.789062 34.175781 -121.1875 39.625 -121.1875 C 45.070312 -121.1875 49.273438 -119.789062 52.234375 -117 C 55.203125 -114.21875 56.566406 -110.457031 56.328125 -105.71875 L 55.96875 -93.640625 L 65.390625 -94.890625 C 71.785156 -95.835938 76.640625 -94.679688 79.953125 -91.421875 C 83.273438 -88.160156 84.9375 -84.28125 84.9375 -79.78125 C 84.9375 -75.28125 83.304688 -71.398438 80.046875 -68.140625 C 76.785156 -64.878906 72.078125 -63.664062 65.921875 -64.5 L 55.96875 -65.75 L 55.96875 -39.265625 C 55.96875 -37.722656 56.5 -36.332031 57.5625 -35.09375 C 58.632812 -33.851562 59.941406 -33.46875 61.484375 -33.9375 C 63.253906 -34.414062 65.117188 -35.421875 67.078125 -36.953125 C 69.035156 -38.492188 71.550781 -39.265625 74.625 -39.265625 C 79.25 -39.265625 82.800781 -37.601562 85.28125 -34.28125 C 87.769531 -30.96875 89.015625 -26.882812 89.015625 -22.03125 C 89.015625 -18.238281 87.679688 -14.59375 85.015625 -11.09375 C 82.359375 -7.601562 78.597656 -4.789062 73.734375 -2.65625 C 68.878906 -0.53125 63.078125 0.53125 56.328125 0.53125 Z M 56.328125 0.53125 "/></g></g><g style="fill:#ff2f1f;fill-opacity:0.302;"><g transform="translate(581.579607, 178.549273)"><path style="stroke:none" d="M 4.09375 -113.546875 C 4.09375 -118.640625 5.660156 -122.753906 8.796875 -125.890625 C 11.929688 -129.023438 16.285156 -130.59375 21.859375 -130.59375 C 27.773438 -130.59375 32.1875 -129.050781 35.09375 -125.96875 C 38 -122.894531 39.453125 -118.8125 39.453125 -113.71875 C 39.453125 -108.738281 38 -104.738281 35.09375 -101.71875 C 32.1875 -98.695312 27.773438 -97.1875 21.859375 -97.1875 C 16.054688 -97.1875 11.644531 -98.695312 8.625 -101.71875 C 5.601562 -104.738281 4.09375 -108.679688 4.09375 -113.546875 Z M 21.859375 0 C 16.285156 0 12.132812 -1.535156 9.40625 -4.609375 C 6.6875 -7.691406 5.328125 -11.546875 5.328125 -16.171875 L 5.328125 -76.9375 C 5.328125 -82.03125 6.6875 -86.054688 9.40625 -89.015625 C 12.132812 -91.984375 16.285156 -93.46875 21.859375 -93.46875 C 27.421875 -93.46875 31.59375 -91.984375 34.375 -89.015625 C 37.164062 -86.054688 38.5625 -82.148438 38.5625 -77.296875 L 38.5625 -16.171875 C 38.5625 -11.546875 37.109375 -7.691406 34.203125 -4.609375 C 31.296875 -1.535156 27.179688 0 21.859375 0 Z M 21.859375 0 "/></g></g><g style="fill:#ff2f1f;fill-opacity:0.302;"><g transform="translate(623.334336, 178.549273)"><path style="stroke:none" d="M 50.46875 0.53125 C 41.226562 0.53125 33.050781 -1.390625 25.9375 -5.234375 C 18.832031 -9.085938 13.265625 -14.566406 9.234375 -21.671875 C 5.210938 -28.785156 3.203125 -37.140625 3.203125 -46.734375 C 3.203125 -56.328125 5.210938 -64.675781 9.234375 -71.78125 C 13.265625 -78.894531 18.863281 -84.40625 26.03125 -88.3125 C 33.195312 -92.21875 41.457031 -94.171875 50.8125 -94.171875 C 58.15625 -94.171875 64.640625 -93.398438 70.265625 -91.859375 C 75.898438 -90.316406 80.34375 -88.003906 83.59375 -84.921875 C 86.851562 -81.847656 88.484375 -78.003906 88.484375 -73.390625 C 88.484375 -67.816406 87.0625 -63.457031 84.21875 -60.3125 C 81.375 -57.175781 77.289062 -55.609375 71.96875 -55.609375 C 68.40625 -55.609375 64.878906 -56.140625 61.390625 -57.203125 C 57.898438 -58.273438 53.425781 -58.8125 47.96875 -58.8125 C 43.46875 -58.8125 39.675781 -58.097656 36.59375 -56.671875 C 33.519531 -55.253906 31.984375 -52.648438 31.984375 -48.859375 C 31.984375 -44.953125 33.519531 -42.140625 36.59375 -40.421875 C 39.675781 -38.703125 43.46875 -37.84375 47.96875 -37.84375 C 51.644531 -37.84375 54.726562 -38.195312 57.21875 -38.90625 C 59.707031 -39.625 62.078125 -40.335938 64.328125 -41.046875 C 66.578125 -41.753906 69.125 -42.109375 71.96875 -42.109375 C 78.007812 -42.109375 82.476562 -40.359375 85.375 -36.859375 C 88.28125 -33.367188 89.734375 -28.898438 89.734375 -23.453125 C 89.734375 -18.835938 88.015625 -14.722656 84.578125 -11.109375 C 81.140625 -7.492188 76.457031 -4.648438 70.53125 -2.578125 C 64.613281 -0.503906 57.925781 0.53125 50.46875 0.53125 Z M 50.46875 0.53125 "/></g></g><g style="fill:#ff2f1f;fill-opacity:0.302;"><g transform="translate(713.595578, 178.549273)"><path style="stroke:none" d="M 31.09375 0 C 22.332031 0 15.492188 -2.367188 10.578125 -7.109375 C 5.660156 -11.847656 3.203125 -18.484375 3.203125 -27.015625 C 3.203125 -35.535156 6.039062 -41.722656 11.71875 -45.578125 C 17.40625 -49.429688 24.691406 -51.359375 33.578125 -51.359375 C 38.796875 -51.359375 43.535156 -51 47.796875 -50.28125 C 52.054688 -49.570312 55.90625 -48.566406 59.34375 -47.265625 L 59.875 -47.265625 L 59.875 -49.9375 C 59.875 -52.65625 58.867188 -54.8125 56.859375 -56.40625 C 54.847656 -58.007812 52.300781 -58.753906 49.21875 -58.640625 C 46.257812 -58.640625 43.742188 -58.460938 41.671875 -58.109375 C 39.597656 -57.753906 37.019531 -57.160156 33.9375 -56.328125 C 28.25 -54.898438 23.332031 -55.015625 19.1875 -56.671875 C 15.039062 -58.335938 12.195312 -61.597656 10.65625 -66.453125 C 9.238281 -71.546875 9.566406 -75.8125 11.640625 -79.25 C 13.710938 -82.6875 16.878906 -85.351562 21.140625 -87.25 C 24.816406 -89.019531 28.929688 -90.5 33.484375 -91.6875 C 38.046875 -92.875 42.992188 -93.46875 48.328125 -93.46875 C 63.847656 -93.46875 75.25 -89.703125 82.53125 -82.171875 C 89.820312 -74.648438 93.46875 -62.066406 93.46875 -44.421875 L 93.46875 -16.875 C 93.46875 -12.019531 91.984375 -7.992188 89.015625 -4.796875 C 86.054688 -1.597656 81.972656 0 76.765625 0 C 71.078125 0 66.835938 -1.597656 64.046875 -4.796875 C 61.265625 -7.992188 59.875 -11.90625 59.875 -16.53125 L 59.875 -20.609375 L 56.328125 -20.609375 C 56.328125 -17.523438 55.765625 -14.382812 54.640625 -11.1875 C 53.515625 -7.988281 51.203125 -5.320312 47.703125 -3.1875 C 44.210938 -1.0625 38.675781 0 31.09375 0 Z M 32.875 -38.90625 C 32.875 -36.894531 33.613281 -35.472656 35.09375 -34.640625 C 36.570312 -33.816406 39.800781 -33.40625 44.78125 -33.40625 C 49.28125 -33.40625 52.414062 -33.816406 54.1875 -34.640625 C 55.96875 -35.472656 56.859375 -36.894531 56.859375 -38.90625 C 56.859375 -40.800781 55.96875 -42.132812 54.1875 -42.90625 C 52.414062 -43.675781 49.28125 -44.0625 44.78125 -44.0625 C 39.800781 -44.0625 36.570312 -43.675781 35.09375 -42.90625 C 33.613281 -42.132812 32.875 -40.800781 32.875 -38.90625 Z M 32.875 -38.90625 "/></g></g><g style="fill:#ff2f1f;fill-opacity:0.502;"><g transform="translate(8.723828, 168.001442)"><path style="stroke:none" d="M 66.28125 0.53125 C 58.34375 0.53125 51.796875 -1.003906 46.640625 -4.078125 C 41.484375 -7.160156 37.273438 -11.601562 34.015625 -17.40625 C 30.765625 -23.21875 27.835938 -30.269531 25.234375 -38.5625 L 5.328125 -102.34375 C 3.429688 -108.269531 3.578125 -113.453125 5.765625 -117.890625 C 7.960938 -122.335938 11.90625 -125.390625 17.59375 -127.046875 C 22.800781 -128.585938 27.535156 -128.257812 31.796875 -126.0625 C 36.066406 -123.875 38.972656 -120.175781 40.515625 -114.96875 L 59.875 -53.484375 C 61.894531 -46.847656 64.472656 -42.429688 67.609375 -40.234375 C 70.742188 -38.046875 74.148438 -37.546875 77.828125 -38.734375 C 81.617188 -39.796875 84.046875 -41.957031 85.109375 -45.21875 C 86.179688 -48.476562 85.882812 -53.425781 84.21875 -60.0625 C 81.5 -71.90625 79.664062 -81.203125 78.71875 -87.953125 C 77.769531 -94.703125 77.296875 -100.035156 77.296875 -103.953125 C 77.296875 -110.578125 79.101562 -116.289062 82.71875 -121.09375 C 86.332031 -125.894531 91.925781 -128.296875 99.5 -128.296875 C 106.96875 -128.296875 112.390625 -125.894531 115.765625 -121.09375 C 119.140625 -116.289062 120.828125 -110.578125 120.828125 -103.953125 C 120.828125 -100.035156 120.289062 -96.003906 119.21875 -91.859375 C 118.15625 -87.710938 116.914062 -83.453125 115.5 -79.078125 L 99.6875 -31.265625 C 97.550781 -24.867188 95.207031 -19.269531 92.65625 -14.46875 C 90.113281 -9.675781 86.796875 -5.976562 82.703125 -3.375 C 78.617188 -0.769531 73.144531 0.53125 66.28125 0.53125 Z M 66.28125 0.53125 "/></g></g><g style="fill:#ff2f1f;fill-opacity:0.502;"><g transform="translate(119.951115, 168.001442)"><path style="stroke:none" d="M 31.09375 0 C 22.332031 0 15.492188 -2.367188 10.578125 -7.109375 C 5.660156 -11.847656 3.203125 -18.484375 3.203125 -27.015625 C 3.203125 -35.535156 6.039062 -41.722656 11.71875 -45.578125 C 17.40625 -49.429688 24.691406 -51.359375 33.578125 -51.359375 C 38.796875 -51.359375 43.535156 -51 47.796875 -50.28125 C 52.054688 -49.570312 55.90625 -48.566406 59.34375 -47.265625 L 59.875 -47.265625 L 59.875 -49.9375 C 59.875 -52.65625 58.867188 -54.8125 56.859375 -56.40625 C 54.847656 -58.007812 52.300781 -58.753906 49.21875 -58.640625 C 46.257812 -58.640625 43.742188 -58.460938 41.671875 -58.109375 C 39.597656 -57.753906 37.019531 -57.160156 33.9375 -56.328125 C 28.25 -54.898438 23.332031 -55.015625 19.1875 -56.671875 C 15.039062 -58.335938 12.195312 -61.597656 10.65625 -66.453125 C 9.238281 -71.546875 9.566406 -75.8125 11.640625 -79.25 C 13.710938 -82.6875 16.878906 -85.351562 21.140625 -87.25 C 24.816406 -89.019531 28.929688 -90.5 33.484375 -91.6875 C 38.046875 -92.875 42.992188 -93.46875 48.328125 -93.46875 C 63.847656 -93.46875 75.25 -89.703125 82.53125 -82.171875 C 89.820312 -74.648438 93.46875 -62.066406 93.46875 -44.421875 L 93.46875 -16.875 C 93.46875 -12.019531 91.984375 -7.992188 89.015625 -4.796875 C 86.054688 -1.597656 81.972656 0 76.765625 0 C 71.078125 0 66.835938 -1.597656 64.046875 -4.796875 C 61.265625 -7.992188 59.875 -11.90625 59.875 -16.53125 L 59.875 -20.609375 L 56.328125 -20.609375 C 56.328125 -17.523438 55.765625 -14.382812 54.640625 -11.1875 C 53.515625 -7.988281 51.203125 -5.320312 47.703125 -3.1875 C 44.210938 -1.0625 38.675781 0 31.09375 0 Z M 32.875 -38.90625 C 32.875 -36.894531 33.613281 -35.472656 35.09375 -34.640625 C 36.570312 -33.816406 39.800781 -33.40625 44.78125 -33.40625 C 49.28125 -33.40625 52.414062 -33.816406 54.1875 -34.640625 C 55.96875 -35.472656 56.859375 -36.894531 56.859375 -38.90625 C 56.859375 -40.800781 55.96875 -42.132812 54.1875 -42.90625 C 52.414062 -43.675781 49.28125 -44.0625 44.78125 -44.0625 C 39.800781 -44.0625 36.570312 -43.675781 35.09375 -42.90625 C 33.613281 -42.132812 32.875 -40.800781 32.875 -38.90625 Z M 32.875 -38.90625 "/></g></g><g style="fill:#ff2f1f;fill-opacity:0.502;"><g transform="translate(217.85265, 168.001442)"><path style="stroke:none" d="M 22.390625 0 C 16.816406 0 12.488281 -1.597656 9.40625 -4.796875 C 6.332031 -7.992188 4.796875 -12.019531 4.796875 -16.875 L 4.796875 -75.15625 C 4.796875 -80.25 6.332031 -84.484375 9.40625 -87.859375 C 12.488281 -91.242188 16.816406 -92.9375 22.390625 -92.9375 C 27.953125 -92.9375 32.210938 -91.242188 35.171875 -87.859375 C 38.140625 -84.484375 39.625 -80.367188 39.625 -75.515625 L 39.625 -71.78125 L 43 -71.78125 C 43.476562 -78.0625 45.847656 -83.210938 50.109375 -87.234375 C 54.367188 -91.265625 59.40625 -93.28125 65.21875 -93.28125 C 71.019531 -93.28125 75.609375 -91.503906 78.984375 -87.953125 C 82.359375 -84.398438 84.046875 -79.660156 84.046875 -73.734375 C 84.046875 -68.171875 82.445312 -63.550781 79.25 -59.875 C 76.050781 -56.207031 71.960938 -54.375 66.984375 -54.375 C 62.835938 -54.375 59.375 -55.347656 56.59375 -57.296875 C 53.8125 -59.253906 51.769531 -61.535156 50.46875 -64.140625 C 46.675781 -64.617188 43.921875 -64.234375 42.203125 -62.984375 C 40.484375 -61.742188 39.625 -59.285156 39.625 -55.609375 L 39.625 -16.875 C 39.625 -12.019531 38.140625 -7.992188 35.171875 -4.796875 C 32.210938 -1.597656 27.953125 0 22.390625 0 Z M 22.390625 0 "/></g></g><g style="fill:#ff2f1f;fill-opacity:0.502;"><g transform="translate(299.585252, 168.001442)"><path style="stroke:none" d="M 49.578125 0.359375 C 35.710938 0.359375 24.664062 -3.753906 16.4375 -11.984375 C 8.207031 -20.222656 4.09375 -31.863281 4.09375 -46.90625 C 4.09375 -56.144531 5.984375 -64.257812 9.765625 -71.25 C 13.554688 -78.238281 18.859375 -83.71875 25.671875 -87.6875 C 32.484375 -91.65625 40.453125 -93.640625 49.578125 -93.640625 C 59.765625 -93.640625 68.234375 -91.65625 74.984375 -87.6875 C 81.734375 -83.71875 86.796875 -78.238281 90.171875 -71.25 C 93.546875 -64.257812 95.234375 -56.144531 95.234375 -46.90625 C 95.234375 -31.863281 91.472656 -20.222656 83.953125 -11.984375 C 76.429688 -3.753906 64.972656 0.359375 49.578125 0.359375 Z M 25.234375 -49.9375 C 25.234375 -46.257812 27.066406 -43.679688 30.734375 -42.203125 C 34.410156 -40.722656 40.691406 -39.984375 49.578125 -39.984375 C 58.460938 -39.984375 64.738281 -40.722656 68.40625 -42.203125 C 72.082031 -43.679688 73.921875 -46.257812 73.921875 -49.9375 C 73.921875 -53.488281 72.082031 -55.972656 68.40625 -57.390625 C 64.738281 -58.816406 58.460938 -59.53125 49.578125 -59.53125 C 40.691406 -59.53125 34.410156 -58.816406 30.734375 -57.390625 C 27.066406 -55.972656 25.234375 -53.488281 25.234375 -49.9375 Z M 37.484375 -119.9375 C 40.804688 -121.945312 44.125 -123.867188 47.4375 -125.703125 C 50.757812 -127.546875 54.609375 -129.710938 58.984375 -132.203125 C 63.492188 -134.691406 67.820312 -135.550781 71.96875 -134.78125 C 76.113281 -134.007812 79.132812 -131.429688 81.03125 -127.046875 C 83.039062 -122.660156 83.332031 -118.71875 81.90625 -115.21875 C 80.488281 -111.726562 77.351562 -108.976562 72.5 -106.96875 C 68.226562 -105.1875 63.457031 -103.523438 58.1875 -101.984375 C 52.914062 -100.453125 48.445312 -99.390625 44.78125 -98.796875 C 41.9375 -98.316406 39.269531 -98.582031 36.78125 -99.59375 C 34.289062 -100.601562 32.453125 -102.644531 31.265625 -105.71875 C 30.203125 -108.800781 30.265625 -111.523438 31.453125 -113.890625 C 32.640625 -116.265625 34.648438 -118.28125 37.484375 -119.9375 Z M 37.484375 -119.9375 "/></g></g><g style="fill:#ff2f1f;fill-opacity:0.502;"><g transform="translate(393.933087, 168.001442)"><path style="stroke:none" d="M 49.578125 2.3125 C 41.398438 2.3125 33.847656 1.515625 26.921875 -0.078125 C 19.992188 -1.679688 14.457031 -4.226562 10.3125 -7.71875 C 6.164062 -11.21875 4.09375 -15.867188 4.09375 -21.671875 C 4.09375 -26.765625 5.628906 -30.96875 8.703125 -34.28125 C 11.785156 -37.601562 15.875 -39.265625 20.96875 -39.265625 C 24.164062 -39.265625 27.390625 -38.757812 30.640625 -37.75 C 33.898438 -36.75 37.363281 -35.773438 41.03125 -34.828125 C 44.707031 -33.878906 48.679688 -33.40625 52.953125 -33.40625 C 56.742188 -33.40625 59.289062 -33.613281 60.59375 -34.03125 C 61.894531 -34.445312 62.546875 -35.242188 62.546875 -36.421875 C 62.546875 -37.847656 61.742188 -38.796875 60.140625 -39.265625 C 58.546875 -39.742188 55.851562 -40.335938 52.0625 -41.046875 L 39.265625 -43.53125 C 33.929688 -44.59375 28.75 -45.984375 23.71875 -47.703125 C 18.6875 -49.421875 14.539062 -52 11.28125 -55.4375 C 8.019531 -58.875 6.390625 -63.550781 6.390625 -69.46875 C 6.390625 -77.53125 9.972656 -83.8125 17.140625 -88.3125 C 24.304688 -92.8125 34.703125 -95.0625 48.328125 -95.0625 C 56.148438 -95.0625 63.171875 -94.289062 69.390625 -92.75 C 75.609375 -91.207031 80.550781 -88.925781 84.21875 -85.90625 C 87.894531 -82.882812 89.734375 -79.125 89.734375 -74.625 C 89.847656 -69.769531 88.539062 -65.859375 85.8125 -62.890625 C 83.09375 -59.929688 79.660156 -58.453125 75.515625 -58.453125 C 72.554688 -58.453125 69.566406 -58.835938 66.546875 -59.609375 C 63.523438 -60.378906 60.265625 -61.207031 56.765625 -62.09375 C 53.273438 -62.988281 49.28125 -63.492188 44.78125 -63.609375 C 41.582031 -63.847656 38.972656 -63.671875 36.953125 -63.078125 C 34.941406 -62.484375 33.9375 -61.535156 33.9375 -60.234375 C 33.9375 -58.816406 35.117188 -57.835938 37.484375 -57.296875 C 39.859375 -56.765625 43.414062 -56.085938 48.15625 -55.265625 L 60.765625 -52.953125 C 68.460938 -51.648438 74.59375 -50.019531 79.15625 -48.0625 C 83.71875 -46.101562 87.003906 -43.40625 89.015625 -39.96875 C 91.035156 -36.539062 92.046875 -31.804688 92.046875 -25.765625 C 92.046875 -19.484375 90.238281 -14.238281 86.625 -10.03125 C 83.007812 -5.832031 78.003906 -2.722656 71.609375 -0.703125 C 65.210938 1.304688 57.867188 2.3125 49.578125 2.3125 Z M 49.578125 2.3125 "/></g></g><g style="fill:#ff2f1f;fill-opacity:0.502;"><g transform="translate(484.549645, 168.001442)"><path style="stroke:none" d="M 56.328125 0.53125 C 50.046875 0.53125 44.390625 -0.890625 39.359375 -3.734375 C 34.328125 -6.578125 30.390625 -10.632812 27.546875 -15.90625 C 24.703125 -21.175781 23.28125 -27.363281 23.28125 -34.46875 L 23.28125 -65.75 L 16.703125 -64.859375 C 13.148438 -64.378906 10.007812 -65.617188 7.28125 -68.578125 C 4.5625 -71.546875 3.203125 -75.28125 3.203125 -79.78125 C 3.203125 -84.28125 4.5625 -87.976562 7.28125 -90.875 C 10.007812 -93.78125 13.148438 -95 16.703125 -94.53125 L 23.28125 -93.640625 L 23.09375 -105.71875 C 22.976562 -110.457031 24.34375 -114.21875 27.1875 -117 C 30.03125 -119.789062 34.175781 -121.1875 39.625 -121.1875 C 45.070312 -121.1875 49.273438 -119.789062 52.234375 -117 C 55.203125 -114.21875 56.566406 -110.457031 56.328125 -105.71875 L 55.96875 -93.640625 L 65.390625 -94.890625 C 71.785156 -95.835938 76.640625 -94.679688 79.953125 -91.421875 C 83.273438 -88.160156 84.9375 -84.28125 84.9375 -79.78125 C 84.9375 -75.28125 83.304688 -71.398438 80.046875 -68.140625 C 76.785156 -64.878906 72.078125 -63.664062 65.921875 -64.5 L 55.96875 -65.75 L 55.96875 -39.265625 C 55.96875 -37.722656 56.5 -36.332031 57.5625 -35.09375 C 58.632812 -33.851562 59.941406 -33.46875 61.484375 -33.9375 C 63.253906 -34.414062 65.117188 -35.421875 67.078125 -36.953125 C 69.035156 -38.492188 71.550781 -39.265625 74.625 -39.265625 C 79.25 -39.265625 82.800781 -37.601562 85.28125 -34.28125 C 87.769531 -30.96875 89.015625 -26.882812 89.015625 -22.03125 C 89.015625 -18.238281 87.679688 -14.59375 85.015625 -11.09375 C 82.359375 -7.601562 78.597656 -4.789062 73.734375 -2.65625 C 68.878906 -0.53125 63.078125 0.53125 56.328125 0.53125 Z M 56.328125 0.53125 "/></g></g><g style="fill:#ff2f1f;fill-opacity:0.502;"><g transform="translate(574.988591, 168.001442)"><path style="stroke:none" d="M 4.09375 -113.546875 C 4.09375 -118.640625 5.660156 -122.753906 8.796875 -125.890625 C 11.929688 -129.023438 16.285156 -130.59375 21.859375 -130.59375 C 27.773438 -130.59375 32.1875 -129.050781 35.09375 -125.96875 C 38 -122.894531 39.453125 -118.8125 39.453125 -113.71875 C 39.453125 -108.738281 38 -104.738281 35.09375 -101.71875 C 32.1875 -98.695312 27.773438 -97.1875 21.859375 -97.1875 C 16.054688 -97.1875 11.644531 -98.695312 8.625 -101.71875 C 5.601562 -104.738281 4.09375 -108.679688 4.09375 -113.546875 Z M 21.859375 0 C 16.285156 0 12.132812 -1.535156 9.40625 -4.609375 C 6.6875 -7.691406 5.328125 -11.546875 5.328125 -16.171875 L 5.328125 -76.9375 C 5.328125 -82.03125 6.6875 -86.054688 9.40625 -89.015625 C 12.132812 -91.984375 16.285156 -93.46875 21.859375 -93.46875 C 27.421875 -93.46875 31.59375 -91.984375 34.375 -89.015625 C 37.164062 -86.054688 38.5625 -82.148438 38.5625 -77.296875 L 38.5625 -16.171875 C 38.5625 -11.546875 37.109375 -7.691406 34.203125 -4.609375 C 31.296875 -1.535156 27.179688 0 21.859375 0 Z M 21.859375 0 "/></g></g><g style="fill:#ff2f1f;fill-opacity:0.502;"><g transform="translate(616.74332, 168.001442)"><path style="stroke:none" d="M 50.46875 0.53125 C 41.226562 0.53125 33.050781 -1.390625 25.9375 -5.234375 C 18.832031 -9.085938 13.265625 -14.566406 9.234375 -21.671875 C 5.210938 -28.785156 3.203125 -37.140625 3.203125 -46.734375 C 3.203125 -56.328125 5.210938 -64.675781 9.234375 -71.78125 C 13.265625 -78.894531 18.863281 -84.40625 26.03125 -88.3125 C 33.195312 -92.21875 41.457031 -94.171875 50.8125 -94.171875 C 58.15625 -94.171875 64.640625 -93.398438 70.265625 -91.859375 C 75.898438 -90.316406 80.34375 -88.003906 83.59375 -84.921875 C 86.851562 -81.847656 88.484375 -78.003906 88.484375 -73.390625 C 88.484375 -67.816406 87.0625 -63.457031 84.21875 -60.3125 C 81.375 -57.175781 77.289062 -55.609375 71.96875 -55.609375 C 68.40625 -55.609375 64.878906 -56.140625 61.390625 -57.203125 C 57.898438 -58.273438 53.425781 -58.8125 47.96875 -58.8125 C 43.46875 -58.8125 39.675781 -58.097656 36.59375 -56.671875 C 33.519531 -55.253906 31.984375 -52.648438 31.984375 -48.859375 C 31.984375 -44.953125 33.519531 -42.140625 36.59375 -40.421875 C 39.675781 -38.703125 43.46875 -37.84375 47.96875 -37.84375 C 51.644531 -37.84375 54.726562 -38.195312 57.21875 -38.90625 C 59.707031 -39.625 62.078125 -40.335938 64.328125 -41.046875 C 66.578125 -41.753906 69.125 -42.109375 71.96875 -42.109375 C 78.007812 -42.109375 82.476562 -40.359375 85.375 -36.859375 C 88.28125 -33.367188 89.734375 -28.898438 89.734375 -23.453125 C 89.734375 -18.835938 88.015625 -14.722656 84.578125 -11.109375 C 81.140625 -7.492188 76.457031 -4.648438 70.53125 -2.578125 C 64.613281 -0.503906 57.925781 0.53125 50.46875 0.53125 Z M 50.46875 0.53125 "/></g></g><g style="fill:#ff2f1f;fill-opacity:0.502;"><g transform="translate(707.004562, 168.001442)"><path style="stroke:none" d="M 31.09375 0 C 22.332031 0 15.492188 -2.367188 10.578125 -7.109375 C 5.660156 -11.847656 3.203125 -18.484375 3.203125 -27.015625 C 3.203125 -35.535156 6.039062 -41.722656 11.71875 -45.578125 C 17.40625 -49.429688 24.691406 -51.359375 33.578125 -51.359375 C 38.796875 -51.359375 43.535156 -51 47.796875 -50.28125 C 52.054688 -49.570312 55.90625 -48.566406 59.34375 -47.265625 L 59.875 -47.265625 L 59.875 -49.9375 C 59.875 -52.65625 58.867188 -54.8125 56.859375 -56.40625 C 54.847656 -58.007812 52.300781 -58.753906 49.21875 -58.640625 C 46.257812 -58.640625 43.742188 -58.460938 41.671875 -58.109375 C 39.597656 -57.753906 37.019531 -57.160156 33.9375 -56.328125 C 28.25 -54.898438 23.332031 -55.015625 19.1875 -56.671875 C 15.039062 -58.335938 12.195312 -61.597656 10.65625 -66.453125 C 9.238281 -71.546875 9.566406 -75.8125 11.640625 -79.25 C 13.710938 -82.6875 16.878906 -85.351562 21.140625 -87.25 C 24.816406 -89.019531 28.929688 -90.5 33.484375 -91.6875 C 38.046875 -92.875 42.992188 -93.46875 48.328125 -93.46875 C 63.847656 -93.46875 75.25 -89.703125 82.53125 -82.171875 C 89.820312 -74.648438 93.46875 -62.066406 93.46875 -44.421875 L 93.46875 -16.875 C 93.46875 -12.019531 91.984375 -7.992188 89.015625 -4.796875 C 86.054688 -1.597656 81.972656 0 76.765625 0 C 71.078125 0 66.835938 -1.597656 64.046875 -4.796875 C 61.265625 -7.992188 59.875 -11.90625 59.875 -16.53125 L 59.875 -20.609375 L 56.328125 -20.609375 C 56.328125 -17.523438 55.765625 -14.382812 54.640625 -11.1875 C 53.515625 -7.988281 51.203125 -5.320312 47.703125 -3.1875 C 44.210938 -1.0625 38.675781 0 31.09375 0 Z M 32.875 -38.90625 C 32.875 -36.894531 33.613281 -35.472656 35.09375 -34.640625 C 36.570312 -33.816406 39.800781 -33.40625 44.78125 -33.40625 C 49.28125 -33.40625 52.414062 -33.816406 54.1875 -34.640625 C 55.96875 -35.472656 56.859375 -36.894531 56.859375 -38.90625 C 56.859375 -40.800781 55.96875 -42.132812 54.1875 -42.90625 C 52.414062 -43.675781 49.28125 -44.0625 44.78125 -44.0625 C 39.800781 -44.0625 36.570312 -43.675781 35.09375 -42.90625 C 33.613281 -42.132812 32.875 -40.800781 32.875 -38.90625 Z M 32.875 -38.90625 "/></g></g><g style="fill:#f6f3e4;fill-opacity:1;"><g transform="translate(2.132812, 157.45361)"><path style="stroke:none" d="M 66.28125 0.53125 C 58.34375 0.53125 51.796875 -1.003906 46.640625 -4.078125 C 41.484375 -7.160156 37.273438 -11.601562 34.015625 -17.40625 C 30.765625 -23.21875 27.835938 -30.269531 25.234375 -38.5625 L 5.328125 -102.34375 C 3.429688 -108.269531 3.578125 -113.453125 5.765625 -117.890625 C 7.960938 -122.335938 11.90625 -125.390625 17.59375 -127.046875 C 22.800781 -128.585938 27.535156 -128.257812 31.796875 -126.0625 C 36.066406 -123.875 38.972656 -120.175781 40.515625 -114.96875 L 59.875 -53.484375 C 61.894531 -46.847656 64.472656 -42.429688 67.609375 -40.234375 C 70.742188 -38.046875 74.148438 -37.546875 77.828125 -38.734375 C 81.617188 -39.796875 84.046875 -41.957031 85.109375 -45.21875 C 86.179688 -48.476562 85.882812 -53.425781 84.21875 -60.0625 C 81.5 -71.90625 79.664062 -81.203125 78.71875 -87.953125 C 77.769531 -94.703125 77.296875 -100.035156 77.296875 -103.953125 C 77.296875 -110.578125 79.101562 -116.289062 82.71875 -121.09375 C 86.332031 -125.894531 91.925781 -128.296875 99.5 -128.296875 C 106.96875 -128.296875 112.390625 -125.894531 115.765625 -121.09375 C 119.140625 -116.289062 120.828125 -110.578125 120.828125 -103.953125 C 120.828125 -100.035156 120.289062 -96.003906 119.21875 -91.859375 C 118.15625 -87.710938 116.914062 -83.453125 115.5 -79.078125 L 99.6875 -31.265625 C 97.550781 -24.867188 95.207031 -19.269531 92.65625 -14.46875 C 90.113281 -9.675781 86.796875 -5.976562 82.703125 -3.375 C 78.617188 -0.769531 73.144531 0.53125 66.28125 0.53125 Z M 66.28125 0.53125 "/></g></g><g style="fill:#f6f3e4;fill-opacity:1;"><g transform="translate(113.360099, 157.45361)"><path style="stroke:none" d="M 31.09375 0 C 22.332031 0 15.492188 -2.367188 10.578125 -7.109375 C 5.660156 -11.847656 3.203125 -18.484375 3.203125 -27.015625 C 3.203125 -35.535156 6.039062 -41.722656 11.71875 -45.578125 C 17.40625 -49.429688 24.691406 -51.359375 33.578125 -51.359375 C 38.796875 -51.359375 43.535156 -51 47.796875 -50.28125 C 52.054688 -49.570312 55.90625 -48.566406 59.34375 -47.265625 L 59.875 -47.265625 L 59.875 -49.9375 C 59.875 -52.65625 58.867188 -54.8125 56.859375 -56.40625 C 54.847656 -58.007812 52.300781 -58.753906 49.21875 -58.640625 C 46.257812 -58.640625 43.742188 -58.460938 41.671875 -58.109375 C 39.597656 -57.753906 37.019531 -57.160156 33.9375 -56.328125 C 28.25 -54.898438 23.332031 -55.015625 19.1875 -56.671875 C 15.039062 -58.335938 12.195312 -61.597656 10.65625 -66.453125 C 9.238281 -71.546875 9.566406 -75.8125 11.640625 -79.25 C 13.710938 -82.6875 16.878906 -85.351562 21.140625 -87.25 C 24.816406 -89.019531 28.929688 -90.5 33.484375 -91.6875 C 38.046875 -92.875 42.992188 -93.46875 48.328125 -93.46875 C 63.847656 -93.46875 75.25 -89.703125 82.53125 -82.171875 C 89.820312 -74.648438 93.46875 -62.066406 93.46875 -44.421875 L 93.46875 -16.875 C 93.46875 -12.019531 91.984375 -7.992188 89.015625 -4.796875 C 86.054688 -1.597656 81.972656 0 76.765625 0 C 71.078125 0 66.835938 -1.597656 64.046875 -4.796875 C 61.265625 -7.992188 59.875 -11.90625 59.875 -16.53125 L 59.875 -20.609375 L 56.328125 -20.609375 C 56.328125 -17.523438 55.765625 -14.382812 54.640625 -11.1875 C 53.515625 -7.988281 51.203125 -5.320312 47.703125 -3.1875 C 44.210938 -1.0625 38.675781 0 31.09375 0 Z M 32.875 -38.90625 C 32.875 -36.894531 33.613281 -35.472656 35.09375 -34.640625 C 36.570312 -33.816406 39.800781 -33.40625 44.78125 -33.40625 C 49.28125 -33.40625 52.414062 -33.816406 54.1875 -34.640625 C 55.96875 -35.472656 56.859375 -36.894531 56.859375 -38.90625 C 56.859375 -40.800781 55.96875 -42.132812 54.1875 -42.90625 C 52.414062 -43.675781 49.28125 -44.0625 44.78125 -44.0625 C 39.800781 -44.0625 36.570312 -43.675781 35.09375 -42.90625 C 33.613281 -42.132812 32.875 -40.800781 32.875 -38.90625 Z M 32.875 -38.90625 "/></g></g><g style="fill:#f6f3e4;fill-opacity:1;"><g transform="translate(211.261634, 157.45361)"><path style="stroke:none" d="M 22.390625 0 C 16.816406 0 12.488281 -1.597656 9.40625 -4.796875 C 6.332031 -7.992188 4.796875 -12.019531 4.796875 -16.875 L 4.796875 -75.15625 C 4.796875 -80.25 6.332031 -84.484375 9.40625 -87.859375 C 12.488281 -91.242188 16.816406 -92.9375 22.390625 -92.9375 C 27.953125 -92.9375 32.210938 -91.242188 35.171875 -87.859375 C 38.140625 -84.484375 39.625 -80.367188 39.625 -75.515625 L 39.625 -71.78125 L 43 -71.78125 C 43.476562 -78.0625 45.847656 -83.210938 50.109375 -87.234375 C 54.367188 -91.265625 59.40625 -93.28125 65.21875 -93.28125 C 71.019531 -93.28125 75.609375 -91.503906 78.984375 -87.953125 C 82.359375 -84.398438 84.046875 -79.660156 84.046875 -73.734375 C 84.046875 -68.171875 82.445312 -63.550781 79.25 -59.875 C 76.050781 -56.207031 71.960938 -54.375 66.984375 -54.375 C 62.835938 -54.375 59.375 -55.347656 56.59375 -57.296875 C 53.8125 -59.253906 51.769531 -61.535156 50.46875 -64.140625 C 46.675781 -64.617188 43.921875 -64.234375 42.203125 -62.984375 C 40.484375 -61.742188 39.625 -59.285156 39.625 -55.609375 L 39.625 -16.875 C 39.625 -12.019531 38.140625 -7.992188 35.171875 -4.796875 C 32.210938 -1.597656 27.953125 0 22.390625 0 Z M 22.390625 0 "/></g></g><g style="fill:#f6f3e4;fill-opacity:1;"><g transform="translate(292.994236, 157.45361)"><path style="stroke:none" d="M 49.578125 0.359375 C 35.710938 0.359375 24.664062 -3.753906 16.4375 -11.984375 C 8.207031 -20.222656 4.09375 -31.863281 4.09375 -46.90625 C 4.09375 -56.144531 5.984375 -64.257812 9.765625 -71.25 C 13.554688 -78.238281 18.859375 -83.71875 25.671875 -87.6875 C 32.484375 -91.65625 40.453125 -93.640625 49.578125 -93.640625 C 59.765625 -93.640625 68.234375 -91.65625 74.984375 -87.6875 C 81.734375 -83.71875 86.796875 -78.238281 90.171875 -71.25 C 93.546875 -64.257812 95.234375 -56.144531 95.234375 -46.90625 C 95.234375 -31.863281 91.472656 -20.222656 83.953125 -11.984375 C 76.429688 -3.753906 64.972656 0.359375 49.578125 0.359375 Z M 25.234375 -49.9375 C 25.234375 -46.257812 27.066406 -43.679688 30.734375 -42.203125 C 34.410156 -40.722656 40.691406 -39.984375 49.578125 -39.984375 C 58.460938 -39.984375 64.738281 -40.722656 68.40625 -42.203125 C 72.082031 -43.679688 73.921875 -46.257812 73.921875 -49.9375 C 73.921875 -53.488281 72.082031 -55.972656 68.40625 -57.390625 C 64.738281 -58.816406 58.460938 -59.53125 49.578125 -59.53125 C 40.691406 -59.53125 34.410156 -58.816406 30.734375 -57.390625 C 27.066406 -55.972656 25.234375 -53.488281 25.234375 -49.9375 Z M 37.484375 -119.9375 C 40.804688 -121.945312 44.125 -123.867188 47.4375 -125.703125 C 50.757812 -127.546875 54.609375 -129.710938 58.984375 -132.203125 C 63.492188 -134.691406 67.820312 -135.550781 71.96875 -134.78125 C 76.113281 -134.007812 79.132812 -131.429688 81.03125 -127.046875 C 83.039062 -122.660156 83.332031 -118.71875 81.90625 -115.21875 C 80.488281 -111.726562 77.351562 -108.976562 72.5 -106.96875 C 68.226562 -105.1875 63.457031 -103.523438 58.1875 -101.984375 C 52.914062 -100.453125 48.445312 -99.390625 44.78125 -98.796875 C 41.9375 -98.316406 39.269531 -98.582031 36.78125 -99.59375 C 34.289062 -100.601562 32.453125 -102.644531 31.265625 -105.71875 C 30.203125 -108.800781 30.265625 -111.523438 31.453125 -113.890625 C 32.640625 -116.265625 34.648438 -118.28125 37.484375 -119.9375 Z M 37.484375 -119.9375 "/></g></g><g style="fill:#f6f3e4;fill-opacity:1;"><g transform="translate(387.342071, 157.45361)"><path style="stroke:none" d="M 49.578125 2.3125 C 41.398438 2.3125 33.847656 1.515625 26.921875 -0.078125 C 19.992188 -1.679688 14.457031 -4.226562 10.3125 -7.71875 C 6.164062 -11.21875 4.09375 -15.867188 4.09375 -21.671875 C 4.09375 -26.765625 5.628906 -30.96875 8.703125 -34.28125 C 11.785156 -37.601562 15.875 -39.265625 20.96875 -39.265625 C 24.164062 -39.265625 27.390625 -38.757812 30.640625 -37.75 C 33.898438 -36.75 37.363281 -35.773438 41.03125 -34.828125 C 44.707031 -33.878906 48.679688 -33.40625 52.953125 -33.40625 C 56.742188 -33.40625 59.289062 -33.613281 60.59375 -34.03125 C 61.894531 -34.445312 62.546875 -35.242188 62.546875 -36.421875 C 62.546875 -37.847656 61.742188 -38.796875 60.140625 -39.265625 C 58.546875 -39.742188 55.851562 -40.335938 52.0625 -41.046875 L 39.265625 -43.53125 C 33.929688 -44.59375 28.75 -45.984375 23.71875 -47.703125 C 18.6875 -49.421875 14.539062 -52 11.28125 -55.4375 C 8.019531 -58.875 6.390625 -63.550781 6.390625 -69.46875 C 6.390625 -77.53125 9.972656 -83.8125 17.140625 -88.3125 C 24.304688 -92.8125 34.703125 -95.0625 48.328125 -95.0625 C 56.148438 -95.0625 63.171875 -94.289062 69.390625 -92.75 C 75.609375 -91.207031 80.550781 -88.925781 84.21875 -85.90625 C 87.894531 -82.882812 89.734375 -79.125 89.734375 -74.625 C 89.847656 -69.769531 88.539062 -65.859375 85.8125 -62.890625 C 83.09375 -59.929688 79.660156 -58.453125 75.515625 -58.453125 C 72.554688 -58.453125 69.566406 -58.835938 66.546875 -59.609375 C 63.523438 -60.378906 60.265625 -61.207031 56.765625 -62.09375 C 53.273438 -62.988281 49.28125 -63.492188 44.78125 -63.609375 C 41.582031 -63.847656 38.972656 -63.671875 36.953125 -63.078125 C 34.941406 -62.484375 33.9375 -61.535156 33.9375 -60.234375 C 33.9375 -58.816406 35.117188 -57.835938 37.484375 -57.296875 C 39.859375 -56.765625 43.414062 -56.085938 48.15625 -55.265625 L 60.765625 -52.953125 C 68.460938 -51.648438 74.59375 -50.019531 79.15625 -48.0625 C 83.71875 -46.101562 87.003906 -43.40625 89.015625 -39.96875 C 91.035156 -36.539062 92.046875 -31.804688 92.046875 -25.765625 C 92.046875 -19.484375 90.238281 -14.238281 86.625 -10.03125 C 83.007812 -5.832031 78.003906 -2.722656 71.609375 -0.703125 C 65.210938 1.304688 57.867188 2.3125 49.578125 2.3125 Z M 49.578125 2.3125 "/></g></g><g style="fill:#f6f3e4;fill-opacity:1;"><g transform="translate(477.958629, 157.45361)"><path style="stroke:none" d="M 56.328125 0.53125 C 50.046875 0.53125 44.390625 -0.890625 39.359375 -3.734375 C 34.328125 -6.578125 30.390625 -10.632812 27.546875 -15.90625 C 24.703125 -21.175781 23.28125 -27.363281 23.28125 -34.46875 L 23.28125 -65.75 L 16.703125 -64.859375 C 13.148438 -64.378906 10.007812 -65.617188 7.28125 -68.578125 C 4.5625 -71.546875 3.203125 -75.28125 3.203125 -79.78125 C 3.203125 -84.28125 4.5625 -87.976562 7.28125 -90.875 C 10.007812 -93.78125 13.148438 -95 16.703125 -94.53125 L 23.28125 -93.640625 L 23.09375 -105.71875 C 22.976562 -110.457031 24.34375 -114.21875 27.1875 -117 C 30.03125 -119.789062 34.175781 -121.1875 39.625 -121.1875 C 45.070312 -121.1875 49.273438 -119.789062 52.234375 -117 C 55.203125 -114.21875 56.566406 -110.457031 56.328125 -105.71875 L 55.96875 -93.640625 L 65.390625 -94.890625 C 71.785156 -95.835938 76.640625 -94.679688 79.953125 -91.421875 C 83.273438 -88.160156 84.9375 -84.28125 84.9375 -79.78125 C 84.9375 -75.28125 83.304688 -71.398438 80.046875 -68.140625 C 76.785156 -64.878906 72.078125 -63.664062 65.921875 -64.5 L 55.96875 -65.75 L 55.96875 -39.265625 C 55.96875 -37.722656 56.5 -36.332031 57.5625 -35.09375 C 58.632812 -33.851562 59.941406 -33.46875 61.484375 -33.9375 C 63.253906 -34.414062 65.117188 -35.421875 67.078125 -36.953125 C 69.035156 -38.492188 71.550781 -39.265625 74.625 -39.265625 C 79.25 -39.265625 82.800781 -37.601562 85.28125 -34.28125 C 87.769531 -30.96875 89.015625 -26.882812 89.015625 -22.03125 C 89.015625 -18.238281 87.679688 -14.59375 85.015625 -11.09375 C 82.359375 -7.601562 78.597656 -4.789062 73.734375 -2.65625 C 68.878906 -0.53125 63.078125 0.53125 56.328125 0.53125 Z M 56.328125 0.53125 "/></g></g><g style="fill:#f6f3e4;fill-opacity:1;"><g transform="translate(568.397575, 157.45361)"><path style="stroke:none" d="M 4.09375 -113.546875 C 4.09375 -118.640625 5.660156 -122.753906 8.796875 -125.890625 C 11.929688 -129.023438 16.285156 -130.59375 21.859375 -130.59375 C 27.773438 -130.59375 32.1875 -129.050781 35.09375 -125.96875 C 38 -122.894531 39.453125 -118.8125 39.453125 -113.71875 C 39.453125 -108.738281 38 -104.738281 35.09375 -101.71875 C 32.1875 -98.695312 27.773438 -97.1875 21.859375 -97.1875 C 16.054688 -97.1875 11.644531 -98.695312 8.625 -101.71875 C 5.601562 -104.738281 4.09375 -108.679688 4.09375 -113.546875 Z M 21.859375 0 C 16.285156 0 12.132812 -1.535156 9.40625 -4.609375 C 6.6875 -7.691406 5.328125 -11.546875 5.328125 -16.171875 L 5.328125 -76.9375 C 5.328125 -82.03125 6.6875 -86.054688 9.40625 -89.015625 C 12.132812 -91.984375 16.285156 -93.46875 21.859375 -93.46875 C 27.421875 -93.46875 31.59375 -91.984375 34.375 -89.015625 C 37.164062 -86.054688 38.5625 -82.148438 38.5625 -77.296875 L 38.5625 -16.171875 C 38.5625 -11.546875 37.109375 -7.691406 34.203125 -4.609375 C 31.296875 -1.535156 27.179688 0 21.859375 0 Z M 21.859375 0 "/></g></g><g style="fill:#f6f3e4;fill-opacity:1;"><g transform="translate(610.152304, 157.45361)"><path style="stroke:none" d="M 50.46875 0.53125 C 41.226562 0.53125 33.050781 -1.390625 25.9375 -5.234375 C 18.832031 -9.085938 13.265625 -14.566406 9.234375 -21.671875 C 5.210938 -28.785156 3.203125 -37.140625 3.203125 -46.734375 C 3.203125 -56.328125 5.210938 -64.675781 9.234375 -71.78125 C 13.265625 -78.894531 18.863281 -84.40625 26.03125 -88.3125 C 33.195312 -92.21875 41.457031 -94.171875 50.8125 -94.171875 C 58.15625 -94.171875 64.640625 -93.398438 70.265625 -91.859375 C 75.898438 -90.316406 80.34375 -88.003906 83.59375 -84.921875 C 86.851562 -81.847656 88.484375 -78.003906 88.484375 -73.390625 C 88.484375 -67.816406 87.0625 -63.457031 84.21875 -60.3125 C 81.375 -57.175781 77.289062 -55.609375 71.96875 -55.609375 C 68.40625 -55.609375 64.878906 -56.140625 61.390625 -57.203125 C 57.898438 -58.273438 53.425781 -58.8125 47.96875 -58.8125 C 43.46875 -58.8125 39.675781 -58.097656 36.59375 -56.671875 C 33.519531 -55.253906 31.984375 -52.648438 31.984375 -48.859375 C 31.984375 -44.953125 33.519531 -42.140625 36.59375 -40.421875 C 39.675781 -38.703125 43.46875 -37.84375 47.96875 -37.84375 C 51.644531 -37.84375 54.726562 -38.195312 57.21875 -38.90625 C 59.707031 -39.625 62.078125 -40.335938 64.328125 -41.046875 C 66.578125 -41.753906 69.125 -42.109375 71.96875 -42.109375 C 78.007812 -42.109375 82.476562 -40.359375 85.375 -36.859375 C 88.28125 -33.367188 89.734375 -28.898438 89.734375 -23.453125 C 89.734375 -18.835938 88.015625 -14.722656 84.578125 -11.109375 C 81.140625 -7.492188 76.457031 -4.648438 70.53125 -2.578125 C 64.613281 -0.503906 57.925781 0.53125 50.46875 0.53125 Z M 50.46875 0.53125 "/></g></g><g style="fill:#f6f3e4;fill-opacity:1;"><g transform="translate(700.413546, 157.45361)"><path style="stroke:none" d="M 31.09375 0 C 22.332031 0 15.492188 -2.367188 10.578125 -7.109375 C 5.660156 -11.847656 3.203125 -18.484375 3.203125 -27.015625 C 3.203125 -35.535156 6.039062 -41.722656 11.71875 -45.578125 C 17.40625 -49.429688 24.691406 -51.359375 33.578125 -51.359375 C 38.796875 -51.359375 43.535156 -51 47.796875 -50.28125 C 52.054688 -49.570312 55.90625 -48.566406 59.34375 -47.265625 L 59.875 -47.265625 L 59.875 -49.9375 C 59.875 -52.65625 58.867188 -54.8125 56.859375 -56.40625 C 54.847656 -58.007812 52.300781 -58.753906 49.21875 -58.640625 C 46.257812 -58.640625 43.742188 -58.460938 41.671875 -58.109375 C 39.597656 -57.753906 37.019531 -57.160156 33.9375 -56.328125 C 28.25 -54.898438 23.332031 -55.015625 19.1875 -56.671875 C 15.039062 -58.335938 12.195312 -61.597656 10.65625 -66.453125 C 9.238281 -71.546875 9.566406 -75.8125 11.640625 -79.25 C 13.710938 -82.6875 16.878906 -85.351562 21.140625 -87.25 C 24.816406 -89.019531 28.929688 -90.5 33.484375 -91.6875 C 38.046875 -92.875 42.992188 -93.46875 48.328125 -93.46875 C 63.847656 -93.46875 75.25 -89.703125 82.53125 -82.171875 C 89.820312 -74.648438 93.46875 -62.066406 93.46875 -44.421875 L 93.46875 -16.875 C 93.46875 -12.019531 91.984375 -7.992188 89.015625 -4.796875 C 86.054688 -1.597656 81.972656 0 76.765625 0 C 71.078125 0 66.835938 -1.597656 64.046875 -4.796875 C 61.265625 -7.992188 59.875 -11.90625 59.875 -16.53125 L 59.875 -20.609375 L 56.328125 -20.609375 C 56.328125 -17.523438 55.765625 -14.382812 54.640625 -11.1875 C 53.515625 -7.988281 51.203125 -5.320312 47.703125 -3.1875 C 44.210938 -1.0625 38.675781 0 31.09375 0 Z M 32.875 -38.90625 C 32.875 -36.894531 33.613281 -35.472656 35.09375 -34.640625 C 36.570312 -33.816406 39.800781 -33.40625 44.78125 -33.40625 C 49.28125 -33.40625 52.414062 -33.816406 54.1875 -34.640625 C 55.96875 -35.472656 56.859375 -36.894531 56.859375 -38.90625 C 56.859375 -40.800781 55.96875 -42.132812 54.1875 -42.90625 C 52.414062 -43.675781 49.28125 -44.0625 44.78125 -44.0625 C 39.800781 -44.0625 36.570312 -43.675781 35.09375 -42.90625 C 33.613281 -42.132812 32.875 -40.800781 32.875 -38.90625 Z M 32.875 -38.90625 "/></g></g><g style="fill:#f6f3e4;fill-opacity:1;"><g transform="translate(798.316377, 157.45361)"><path style="stroke:none" d=""/></g></g></g></svg>